inDegrees=yes
name=ik_lifting_orientations
DataType=double
version=3
OpenSimVersion=4.5-2024-01-10-34fd6af
endheader
time	pelvis_tilt	pelvis_list	pelvis_rotation	pelvis_tx	pelvis_ty	pelvis_tz	hip_flexion_r	hip_adduction_r	hip_rotation_r	knee_angle_r	knee_angle_r_beta	ankle_angle_r	subtalar_angle_r	mtp_angle_r	hip_flexion_l	hip_adduction_l	hip_rotation_l	knee_angle_l	knee_angle_l_beta	ankle_angle_l	subtalar_angle_l	mtp_angle_l	lumbar_extension	lumbar_bending	lumbar_rotation	arm_flex_r	arm_add_r	arm_rot_r	elbow_flex_r	pro_sup_r	wrist_flex_r	wrist_dev_r	arm_flex_l	arm_add_l	arm_rot_l	elbow_flex_l	pro_sup_l	wrist_flex_l	wrist_dev_l
0.02	0.01806537717546472	0.01899105772158948	13.86313487641233	0	0.9399999998679526	0	42.2254211669928	-10.03671581022375	0	60.90383728760744	1.062972487767643	-4.699487798309964	0	0	42.2254211669928	-10.03671581022375	0	60.90383728760744	1.062972487767643	-4.699487798309964	0	0	-0.01859642002820832	-0.005105844164277971	-0.0006054744601659258	-0.4823317414085931	-0.1250513657231982	-0.007500502807422842	0.9789603525668283	-0.3836002430058701	0	0	0	-10.06045358517292	0	90.97900023762671	-0.3836002430058701	0	0
0.03	0.0006304810510569222	0.001900344944396579	13.86749011047064	0	0.9399999998679526	0	42.32461350784236	-10.03288735116752	0	60.87810745985965	1.062523417557472	-4.737604551616835	0	0	42.32461350784236	-10.03288735116752	0	60.87810745985965	1.062523417557472	-4.737604551616835	0	0	-0.001094343294475745	-0.004657933036315591	-0.0005419391050850297	-0.2354958693073004	-0.05171299528507627	-0.004857011046337434	0.4921795963430949	-0.3738515544550138	0	0	0	-10.15429556248167	0	90.95410934012625	-0.3738515544550138	0	0
0.04	-0.0007517226418371225	-0.0001865043486502803	13.86449171463549	0	0.9399999998679526	0	42.45734195333563	-10.02855524739467	0	60.84318150086247	1.061913844578555	-4.778206609524222	0	0	42.45734195333563	-10.02855524739467	0	60.84318150086247	1.061913844578555	-4.778206609524222	0	0	-0.0008584148987513199	0.001467953685772487	0.001887201883115143	-0.2329621987443976	-0.05680939625922389	-0.004052657693250179	0.4913980633979709	-0.3604941214102607	0	0	0	-10.28471975243132	0	90.92000488835265	-0.3604941214102607	0	0
0.05	0.4159578627786962	0.2730146474679039	13.07124073838195	0	0.9399999998679526	0	42.45811483183817	-10.0285254527475	0	60.84297787832493	1.061910290694844	-4.778507526139799	0	0	42.45811483183817	-10.0285254527475	0	60.84297787832493	1.061910290694844	-4.778507526139799	0	0	-0.4657623230325075	-0.1713063457505127	0.7950747314209173	-0.2394012241649972	-0.05602997707594594	-0.008406937779643924	0.4958849962464525	-0.3604176008321583	0	0	0	-10.28546110047251	0	90.91980951239026	-0.3604176008321583	0	0
0.06	0.4172987362050482	0.2738417064475815	13.06885348661975	0	0.9399999998679526	0	42.58621011981278	-10.02469428473145	0	60.80892427785751	1.061315943244529	-4.813532371712984	0	0	42.58621011981278	-10.02469428473145	0	60.80892427785751	1.061315943244529	-4.813532371712984	0	0	-0.4690898788850309	-0.1711245089823565	0.7942429448935813	-0.2343079525289667	-0.05686472127488596	-0.00402801126630236	0.4915116042336108	-0.3473392391410769	0	0	0	-10.41430928285266	0	90.88641784596332	-0.3473392391410769	0	0
0.07000000000000001	0.4232410126221527	0.278968888461856	13.07117531337584	0	0.9399999998679526	0	42.58688624492621	-10.02467008811546	0	60.80874692264889	1.061312847812193	-4.813770814231503	0	0	42.58688624492621	-10.02467008811546	0	60.80874692264889	1.061312847812193	-4.813770814231503	0	0	-0.4736970267914599	-0.1772323435307515	0.7947685011350747	-0.2615283624783389	0.4518208512076456	0.07683626849528163	0.8106185538057159	-0.3472716855767541	0	0	0	-10.41496660621317	0	90.886245366053	-0.3472716855767541	0	0
0.08	0.3940908328453937	0.2663545363793577	13.08084103182618	0	0.9399999998679526	0	42.63642948789508	-10.02308069187606	0	60.79564804089938	1.061084229197334	-4.828765247064143	0	0	42.63642948789508	-10.02308069187606	0	60.79564804089938	1.061084229197334	-4.828765247064143	0	0	-0.4051379944690471	-0.1597699642752883	0.7930605671643399	-0.3556529642812529	0.4187621229559793	0.06416693899774395	0.9141614641959873	-0.3422529667533791	0	0	0	-10.46419017058146	0	90.87343151390832	-0.3422529667533791	0	0
0.09	0.4180127807897352	0.2712054857182348	13.07071271961585	0	0.9399999998679526	0	42.73823244122534	-10.02004631389364	0	60.76852849538977	1.060610903836547	-4.856589524716059	0	0	42.73823244122534	-10.02004631389364	0	60.76852849538977	1.060610903836547	-4.856589524716059	0	0	-0.4657845202740972	-0.1711456774014257	0.794174158553372	-0.2554906865982521	0.4515059725010194	0.07514741778821357	0.8061979923475084	-0.3318386815997723	0	0	0	-10.56693495086516	0	90.84684177376036	-0.3318386815997723	0	0
0.1	0.4183648006336488	0.2749703098460017	13.0701558294014	0	0.9399999998679526	0	42.77669840504269	-10.01900687080913	0	60.75818623040239	1.060430397260404	-4.865798206381058	0	0	42.77669840504269	-10.01900687080913	0	60.75818623040239	1.060430397260404	-4.865798206381058	0	0	-0.4727459704734172	-0.1730591715241597	0.7943694587159996	-0.2528861559894656	0.4488647675892793	0.07579948754314014	0.8083956431716505	-0.3278478382938328	0	0	0	-10.60664593144639	0	90.83665243038516	-0.3278478382938328	0	0
